<mxfile host="app.diagrams.net" modified="2021-12-14T16:54:12.513Z" agent="5.0 (Windows NT 10.0; Win64; x64) AppleWebKit/537.36 (KHTML, like Gecko) Chrome/95.0.4638.69 Safari/537.36 OPR/81.0.4196.61" etag="TJIoV63Yuxuk0clLpOce" version="15.9.6" type="github">
  <diagram id="Y5da1QLnvi4VKYOh3qWE" name="Page-1">
    <mxGraphModel dx="692" dy="1862" grid="1" gridSize="10" guides="1" tooltips="1" connect="1" arrows="1" fold="1" page="1" pageScale="1" pageWidth="850" pageHeight="1100" math="0" shadow="0">
      <root>
        <mxCell id="0" />
        <mxCell id="1" parent="0" />
        <mxCell id="jfCONr5ZfFZsCZOuj5Go-1" value="Classname" style="swimlane;fontStyle=1;align=center;verticalAlign=top;childLayout=stackLayout;horizontal=1;startSize=26;horizontalStack=0;resizeParent=1;resizeParentMax=0;resizeLast=0;collapsible=1;marginBottom=0;" vertex="1" parent="1">
          <mxGeometry x="220" y="-220" width="160" height="86" as="geometry" />
        </mxCell>
        <mxCell id="jfCONr5ZfFZsCZOuj5Go-2" value="+ field: type" style="text;strokeColor=none;fillColor=none;align=left;verticalAlign=top;spacingLeft=4;spacingRight=4;overflow=hidden;rotatable=0;points=[[0,0.5],[1,0.5]];portConstraint=eastwest;" vertex="1" parent="jfCONr5ZfFZsCZOuj5Go-1">
          <mxGeometry y="26" width="160" height="26" as="geometry" />
        </mxCell>
        <mxCell id="jfCONr5ZfFZsCZOuj5Go-3" value="" style="line;strokeWidth=1;fillColor=none;align=left;verticalAlign=middle;spacingTop=-1;spacingLeft=3;spacingRight=3;rotatable=0;labelPosition=right;points=[];portConstraint=eastwest;" vertex="1" parent="jfCONr5ZfFZsCZOuj5Go-1">
          <mxGeometry y="52" width="160" height="8" as="geometry" />
        </mxCell>
        <mxCell id="jfCONr5ZfFZsCZOuj5Go-4" value="+ method(type): type" style="text;strokeColor=none;fillColor=none;align=left;verticalAlign=top;spacingLeft=4;spacingRight=4;overflow=hidden;rotatable=0;points=[[0,0.5],[1,0.5]];portConstraint=eastwest;" vertex="1" parent="jfCONr5ZfFZsCZOuj5Go-1">
          <mxGeometry y="60" width="160" height="26" as="geometry" />
        </mxCell>
        <mxCell id="jfCONr5ZfFZsCZOuj5Go-35" style="edgeStyle=orthogonalEdgeStyle;rounded=0;orthogonalLoop=1;jettySize=auto;html=1;dashed=1;" edge="1" parent="1" source="jfCONr5ZfFZsCZOuj5Go-5" target="jfCONr5ZfFZsCZOuj5Go-21">
          <mxGeometry relative="1" as="geometry" />
        </mxCell>
        <mxCell id="jfCONr5ZfFZsCZOuj5Go-39" style="edgeStyle=orthogonalEdgeStyle;rounded=0;orthogonalLoop=1;jettySize=auto;html=1;dashed=1;endArrow=classic;endFill=1;" edge="1" parent="1" source="jfCONr5ZfFZsCZOuj5Go-5" target="jfCONr5ZfFZsCZOuj5Go-25">
          <mxGeometry relative="1" as="geometry" />
        </mxCell>
        <mxCell id="jfCONr5ZfFZsCZOuj5Go-5" value="&lt;I&gt;&#xa;ReiseAnbieter" style="swimlane;fontStyle=1;align=center;verticalAlign=top;childLayout=stackLayout;horizontal=1;startSize=40;horizontalStack=0;resizeParent=1;resizeParentMax=0;resizeLast=0;collapsible=1;marginBottom=0;" vertex="1" parent="1">
          <mxGeometry x="215" y="-700" width="270" height="74" as="geometry" />
        </mxCell>
        <mxCell id="jfCONr5ZfFZsCZOuj5Go-7" value="" style="line;strokeWidth=1;fillColor=none;align=left;verticalAlign=middle;spacingTop=-1;spacingLeft=3;spacingRight=3;rotatable=0;labelPosition=right;points=[];portConstraint=eastwest;" vertex="1" parent="jfCONr5ZfFZsCZOuj5Go-5">
          <mxGeometry y="40" width="270" height="8" as="geometry" />
        </mxCell>
        <mxCell id="jfCONr5ZfFZsCZOuj5Go-8" value="+ executeQuery(d : QueryObject) : QueryResult" style="text;strokeColor=none;fillColor=none;align=left;verticalAlign=top;spacingLeft=4;spacingRight=4;overflow=hidden;rotatable=0;points=[[0,0.5],[1,0.5]];portConstraint=eastwest;" vertex="1" parent="jfCONr5ZfFZsCZOuj5Go-5">
          <mxGeometry y="48" width="270" height="26" as="geometry" />
        </mxCell>
        <mxCell id="jfCONr5ZfFZsCZOuj5Go-29" style="edgeStyle=orthogonalEdgeStyle;rounded=0;orthogonalLoop=1;jettySize=auto;html=1;dashed=1;" edge="1" parent="1" source="jfCONr5ZfFZsCZOuj5Go-9" target="jfCONr5ZfFZsCZOuj5Go-17">
          <mxGeometry relative="1" as="geometry" />
        </mxCell>
        <mxCell id="jfCONr5ZfFZsCZOuj5Go-30" style="edgeStyle=orthogonalEdgeStyle;rounded=0;orthogonalLoop=1;jettySize=auto;html=1;dashed=1;" edge="1" parent="1" source="jfCONr5ZfFZsCZOuj5Go-9" target="jfCONr5ZfFZsCZOuj5Go-13">
          <mxGeometry relative="1" as="geometry" />
        </mxCell>
        <mxCell id="jfCONr5ZfFZsCZOuj5Go-37" style="edgeStyle=orthogonalEdgeStyle;rounded=0;orthogonalLoop=1;jettySize=auto;html=1;dashed=1;" edge="1" parent="1" source="jfCONr5ZfFZsCZOuj5Go-9" target="jfCONr5ZfFZsCZOuj5Go-31">
          <mxGeometry relative="1" as="geometry">
            <Array as="points">
              <mxPoint x="100" y="-870" />
              <mxPoint x="350" y="-870" />
            </Array>
          </mxGeometry>
        </mxCell>
        <mxCell id="jfCONr5ZfFZsCZOuj5Go-9" value="HotelSuche" style="swimlane;fontStyle=1;align=center;verticalAlign=top;childLayout=stackLayout;horizontal=1;startSize=26;horizontalStack=0;resizeParent=1;resizeParentMax=0;resizeLast=0;collapsible=1;marginBottom=0;" vertex="1" parent="1">
          <mxGeometry x="20" y="-914" width="160" height="34" as="geometry" />
        </mxCell>
        <mxCell id="jfCONr5ZfFZsCZOuj5Go-11" value="" style="line;strokeWidth=1;fillColor=none;align=left;verticalAlign=middle;spacingTop=-1;spacingLeft=3;spacingRight=3;rotatable=0;labelPosition=right;points=[];portConstraint=eastwest;" vertex="1" parent="jfCONr5ZfFZsCZOuj5Go-9">
          <mxGeometry y="26" width="160" height="8" as="geometry" />
        </mxCell>
        <mxCell id="jfCONr5ZfFZsCZOuj5Go-13" value="Suchauftrag" style="swimlane;fontStyle=1;align=center;verticalAlign=top;childLayout=stackLayout;horizontal=1;startSize=26;horizontalStack=0;resizeParent=1;resizeParentMax=0;resizeLast=0;collapsible=1;marginBottom=0;" vertex="1" parent="1">
          <mxGeometry x="20" y="-820" width="160" height="34" as="geometry" />
        </mxCell>
        <mxCell id="jfCONr5ZfFZsCZOuj5Go-15" value="" style="line;strokeWidth=1;fillColor=none;align=left;verticalAlign=middle;spacingTop=-1;spacingLeft=3;spacingRight=3;rotatable=0;labelPosition=right;points=[];portConstraint=eastwest;" vertex="1" parent="jfCONr5ZfFZsCZOuj5Go-13">
          <mxGeometry y="26" width="160" height="8" as="geometry" />
        </mxCell>
        <mxCell id="jfCONr5ZfFZsCZOuj5Go-17" value="Suchergebnis" style="swimlane;fontStyle=1;align=center;verticalAlign=top;childLayout=stackLayout;horizontal=1;startSize=26;horizontalStack=0;resizeParent=1;resizeParentMax=0;resizeLast=0;collapsible=1;marginBottom=0;" vertex="1" parent="1">
          <mxGeometry x="220" y="-914" width="160" height="34" as="geometry" />
        </mxCell>
        <mxCell id="jfCONr5ZfFZsCZOuj5Go-19" value="" style="line;strokeWidth=1;fillColor=none;align=left;verticalAlign=middle;spacingTop=-1;spacingLeft=3;spacingRight=3;rotatable=0;labelPosition=right;points=[];portConstraint=eastwest;" vertex="1" parent="jfCONr5ZfFZsCZOuj5Go-17">
          <mxGeometry y="26" width="160" height="8" as="geometry" />
        </mxCell>
        <mxCell id="jfCONr5ZfFZsCZOuj5Go-21" value="QueryResult" style="swimlane;fontStyle=1;align=center;verticalAlign=top;childLayout=stackLayout;horizontal=1;startSize=26;horizontalStack=0;resizeParent=1;resizeParentMax=0;resizeLast=0;collapsible=1;marginBottom=0;" vertex="1" parent="1">
          <mxGeometry x="270" y="-567" width="160" height="34" as="geometry" />
        </mxCell>
        <mxCell id="jfCONr5ZfFZsCZOuj5Go-23" value="" style="line;strokeWidth=1;fillColor=none;align=left;verticalAlign=middle;spacingTop=-1;spacingLeft=3;spacingRight=3;rotatable=0;labelPosition=right;points=[];portConstraint=eastwest;" vertex="1" parent="jfCONr5ZfFZsCZOuj5Go-21">
          <mxGeometry y="26" width="160" height="8" as="geometry" />
        </mxCell>
        <mxCell id="jfCONr5ZfFZsCZOuj5Go-25" value="QueryObject" style="swimlane;fontStyle=1;align=center;verticalAlign=top;childLayout=stackLayout;horizontal=1;startSize=26;horizontalStack=0;resizeParent=1;resizeParentMax=0;resizeLast=0;collapsible=1;marginBottom=0;" vertex="1" parent="1">
          <mxGeometry x="500" y="-567" width="160" height="34" as="geometry" />
        </mxCell>
        <mxCell id="jfCONr5ZfFZsCZOuj5Go-27" value="" style="line;strokeWidth=1;fillColor=none;align=left;verticalAlign=middle;spacingTop=-1;spacingLeft=3;spacingRight=3;rotatable=0;labelPosition=right;points=[];portConstraint=eastwest;" vertex="1" parent="jfCONr5ZfFZsCZOuj5Go-25">
          <mxGeometry y="26" width="160" height="8" as="geometry" />
        </mxCell>
        <mxCell id="jfCONr5ZfFZsCZOuj5Go-38" style="edgeStyle=orthogonalEdgeStyle;rounded=0;orthogonalLoop=1;jettySize=auto;html=1;dashed=1;endArrow=block;endFill=0;" edge="1" parent="1" source="jfCONr5ZfFZsCZOuj5Go-31" target="jfCONr5ZfFZsCZOuj5Go-5">
          <mxGeometry relative="1" as="geometry" />
        </mxCell>
        <mxCell id="jfCONr5ZfFZsCZOuj5Go-31" value="ReiseAnbieterAdapter" style="swimlane;fontStyle=1;align=center;verticalAlign=top;childLayout=stackLayout;horizontal=1;startSize=26;horizontalStack=0;resizeParent=1;resizeParentMax=0;resizeLast=0;collapsible=1;marginBottom=0;" vertex="1" parent="1">
          <mxGeometry x="220" y="-848" width="260" height="90" as="geometry" />
        </mxCell>
        <mxCell id="jfCONr5ZfFZsCZOuj5Go-33" value="" style="line;strokeWidth=1;fillColor=none;align=left;verticalAlign=middle;spacingTop=-1;spacingLeft=3;spacingRight=3;rotatable=0;labelPosition=right;points=[];portConstraint=eastwest;" vertex="1" parent="jfCONr5ZfFZsCZOuj5Go-31">
          <mxGeometry y="26" width="260" height="8" as="geometry" />
        </mxCell>
        <mxCell id="jfCONr5ZfFZsCZOuj5Go-34" value="+ suche(s : Suchauftrag) : Suchergebnis&#xa;- convertIN(s : Suchauftrag) : QueryObject&#xa;- convertOUT(q : QueryObject) : Suchergebnis" style="text;strokeColor=none;fillColor=none;align=left;verticalAlign=top;spacingLeft=4;spacingRight=4;overflow=hidden;rotatable=0;points=[[0,0.5],[1,0.5]];portConstraint=eastwest;" vertex="1" parent="jfCONr5ZfFZsCZOuj5Go-31">
          <mxGeometry y="34" width="260" height="56" as="geometry" />
        </mxCell>
      </root>
    </mxGraphModel>
  </diagram>
</mxfile>
